<?xml version="1.0" encoding="UTF-8"?>
<!-- Generator: visioncortex VTracer 0.6.3 -->
<svg version="1.1" xmlns="http://www.w3.org/2000/svg" width="1280" height="1280">
<path d="M0 0 C422.4 0 844.8 0 1280 0 C1280.08 193.13 1280.16 386.27 1280.25 585.25 C1280.29 646.35 1280.32 707.45 1280.36 770.4 C1280.38 844.71 1280.38 844.71 1280.38 879.44 C1280.39 904.63 1280.4 929.82 1280.42 955 C1280.45 981.54 1280.46 1008.07 1280.45 1034.61 C1280.45 1038.3 1280.45 1042 1280.45 1045.69 C1280.45 1046.78 1280.45 1046.78 1280.45 1047.89 C1280.45 1059.28 1280.46 1070.67 1280.48 1082.06 C1280.5 1093.14 1280.5 1104.21 1280.49 1115.29 C1280.48 1121.22 1280.48 1127.15 1280.5 1133.08 C1280.52 1138.47 1280.51 1143.87 1280.5 1149.26 C1280.49 1151.21 1280.5 1153.16 1280.51 1155.11 C1280.52 1157.74 1280.51 1160.36 1280.5 1162.99 C1280.51 1163.76 1280.52 1164.52 1280.53 1165.3 C1280.48 1168.78 1280.25 1170.66 1278.13 1173.47 C1276 1175 1276 1175 1273.38 1175.5 C1272.2 1175.75 1272.2 1175.75 1271 1176 C1270.54 1176.99 1270.54 1176.99 1270.06 1178 C1269.71 1178.66 1269.36 1179.32 1269 1180 C1267 1180.33 1265 1180.67 1263 1181 C1261.82 1182.87 1261.82 1182.87 1261 1185 C1257.72 1188.28 1254.51 1188.57 1250 1189 C1250 1189.66 1250 1190.32 1250 1191 C1249.34 1191 1248.68 1191 1248 1191 C1247.67 1191.99 1247.34 1192.98 1247 1194 C1241.13 1197.77 1241.13 1197.77 1237.88 1198.44 C1235.74 1198.92 1235.74 1198.92 1233.81 1201.19 C1227.87 1207.13 1221.49 1210.52 1213.48 1212.95 C1210.62 1214.16 1209.16 1215.82 1207 1218 C1203.75 1218.25 1203.75 1218.25 1201 1218 C1200.81 1218.58 1200.63 1219.15 1200.44 1219.75 C1198.38 1222.97 1195.53 1224.6 1192 1226 C1190.68 1226 1189.36 1226 1188 1226 C1187.71 1226.64 1187.42 1227.28 1187.12 1227.94 C1186 1230 1186 1230 1184 1231 C1182 1231.04 1180 1231.04 1178 1231 C1177.67 1231.99 1177.34 1232.98 1177 1234 C1174.25 1235.56 1174.25 1235.56 1171 1237 C1170.15 1237.41 1169.31 1237.83 1168.44 1238.25 C1165.57 1239.13 1163.85 1238.82 1161 1238 C1160.67 1238.99 1160.34 1239.98 1160 1241 C1152.61 1246.29 1142.19 1251 1133 1251 C1133 1251.66 1133 1252.32 1133 1253 C1130.69 1253 1128.38 1253 1126 1253 C1125.67 1253.99 1125.34 1254.98 1125 1256 C1122.69 1256 1120.38 1256 1118 1256 C1117.67 1256.99 1117.34 1257.98 1117 1259 C1112.59 1261.62 1107.95 1261.19 1103 1261 C1103 1261.66 1103 1262.32 1103 1263 C1100.69 1263 1098.38 1263 1096 1263 C1095.67 1263.99 1095.34 1264.98 1095 1266 C1092.69 1266 1090.38 1266 1088 1266 C1088 1266.66 1088 1267.32 1088 1268 C1084.92 1269.03 1082.36 1269.27 1079.12 1269.5 C1075.33 1269.77 1071.71 1270.18 1068 1271 C1068 1271.66 1068 1272.32 1068 1273 C1064.04 1273 1060.08 1273 1056 1273 C1055.67 1273.99 1055.34 1274.98 1055 1276 C1047.08 1276 1039.16 1276 1031 1276 C1031 1276.66 1031 1277.32 1031 1278 C1023.74 1278 1016.48 1278 1009 1278 C1009 1278.66 1009 1279.32 1009 1280 C987.55 1280 966.1 1280 944 1280 C944 1279.34 944 1278.68 944 1278 C943.43 1278.01 942.87 1278.01 942.29 1278.02 C930.64 1278.11 919.01 1278.03 907.38 1277.62 C906.32 1277.59 905.26 1277.56 904.16 1277.53 C903.17 1277.49 902.17 1277.45 901.15 1277.41 C899.84 1277.37 899.84 1277.37 898.5 1277.32 C895.73 1276.97 893.56 1276.09 891 1275 C888.91 1274.57 886.8 1274.2 884.69 1273.88 C883.62 1273.71 882.55 1273.54 881.45 1273.37 C880.64 1273.25 879.83 1273.12 879 1273 C879 1272.34 879 1271.68 879 1271 C876.03 1271 873.06 1271 870 1271 C869.67 1270.01 869.34 1269.02 869 1268 C868.07 1268.25 868.07 1268.25 867.12 1268.5 C857.17 1270.09 848.57 1268.27 839.19 1265 C834.05 1263.23 829.08 1262.29 823.71 1261.5 C820.13 1260.84 817.25 1259.62 814 1258 C814 1257.34 814 1256.68 814 1256 C812.93 1256.06 811.86 1256.12 810.75 1256.19 C804.96 1256.22 799.54 1254.55 794 1253 C794 1252.34 794 1251.68 794 1251 C792.35 1250.67 790.7 1250.34 789 1250 C789 1249.34 789 1248.68 789 1248 C787.5 1247.94 787.5 1247.94 785.96 1247.89 C772.85 1247.28 772.85 1247.28 767 1244 C767 1243.01 767 1242.02 767 1241 C766.2 1240.88 765.39 1240.75 764.56 1240.62 C760.34 1239.88 756.18 1238.96 752 1238 C752 1237.34 752 1236.68 752 1236 C751.01 1235.67 750.02 1235.34 749 1235 C749 1234.34 749 1233.68 749 1233 C748.05 1233.06 747.1 1233.12 746.12 1233.19 C738.52 1233.16 731.98 1230.33 725.76 1226.14 C723.62 1224.75 721.41 1223.83 719 1223 C719 1222.34 719 1221.68 719 1221 C717.35 1220.67 715.7 1220.34 714 1220 C714 1219.34 714 1218.68 714 1218 C711.69 1218 709.38 1218 707 1218 C707 1217.34 707 1216.68 707 1216 C705.89 1215.92 704.77 1215.84 703.62 1215.75 C695.03 1214.63 688.42 1210.82 681.54 1205.75 C677.59 1203.03 673.34 1201.01 669 1199 C669 1198.01 669 1197.02 669 1196 C667.87 1195.96 666.73 1195.92 665.56 1195.88 C660.99 1195.3 658.23 1193.4 654.55 1190.74 C651.66 1188.76 648.67 1187.18 645.56 1185.56 C639.77 1182.5 634 1179.28 629 1175 C629 1174.34 629 1173.68 629 1173 C628.17 1172.94 627.35 1172.88 626.5 1172.81 C621.96 1171.76 618.82 1169.59 615 1167 C614.39 1166.62 613.78 1166.24 613.16 1165.85 C611.73 1164.96 610.36 1163.99 609 1163 C609 1162.34 609 1161.68 609 1161 C608.22 1160.81 607.43 1160.63 606.62 1160.44 C602.35 1158.74 599.06 1156.37 595.37 1153.66 C593.29 1152.2 591.27 1151.11 589 1150 C588.55 1149.53 588.09 1149.05 587.62 1148.56 C585.97 1146.81 585.97 1146.81 583.27 1145.69 C579.84 1143.92 577.1 1141.89 574.12 1139.44 C573.16 1138.65 572.19 1137.87 571.2 1137.06 C570.47 1136.38 569.75 1135.7 569 1135 C569 1134.34 569 1133.68 569 1133 C568.01 1133 567.02 1133 566 1133 C566 1132.34 566 1131.68 566 1131 C565.46 1130.94 564.93 1130.88 564.38 1130.81 C560.95 1129.64 558.73 1127.33 556 1125 C553.78 1123.72 553.78 1123.72 552 1123 C552 1122.34 552 1121.68 552 1121 C551.3 1120.77 550.59 1120.54 549.87 1120.3 C546.45 1118.75 543.86 1116.58 541.06 1114.12 C538.03 1111.49 535.02 1108.96 531.62 1106.8 C530.76 1106.21 529.89 1105.61 529 1105 C529 1104.34 529 1103.68 529 1103 C528.4 1102.74 527.79 1102.48 527.17 1102.21 C524.82 1100.9 523.83 1099.72 522.25 1097.56 C518.99 1093.55 515.91 1092.44 511 1091 C511 1090.01 511 1089.02 511 1088 C510.34 1088 509.68 1088 509 1088 C509 1087.34 509 1086.68 509 1086 C508.01 1085.67 507.02 1085.34 506 1085 C506 1084.34 506 1083.68 506 1083 C505.34 1083 504.68 1083 504 1083 C504 1082.34 504 1081.68 504 1081 C503.01 1080.67 502.02 1080.34 501 1080 C501 1079.34 501 1078.68 501 1078 C500.4 1077.73 499.8 1077.46 499.19 1077.19 C497 1076 495.59 1074.9 494 1073 C494 1072.34 494 1071.68 494 1071 C492.64 1070.6 492.64 1070.6 491.25 1070.19 C488.26 1069.09 486.28 1068.2 484 1066 C484 1065.01 484 1064.02 484 1063 C483.36 1062.71 482.72 1062.42 482.06 1062.12 C480 1061 480 1061 479 1059 C478.08 1058.54 477.16 1058.08 476.21 1057.61 C465.84 1052.42 457.29 1041.44 449.17 1033.3 C447.05 1031.17 444.92 1029.05 442.79 1026.93 C441.44 1025.57 440.08 1024.21 438.72 1022.86 C438.09 1022.23 437.46 1021.6 436.81 1020.95 C429 1013.1 429 1013.1 429 1008 C428.28 1007.77 427.56 1007.55 426.81 1007.31 C423.42 1005.73 421.43 1003.84 419 1001 C419 1000.01 419 999.02 419 998 C418.28 997.79 417.56 997.59 416.81 997.38 C412.97 995.5 411.45 993.51 409 990 C409 988.68 409 987.36 409 986 C408.01 985.67 407.02 985.34 406 985 C406 984.34 406 983.68 406 983 C405.36 982.71 404.72 982.42 404.06 982.12 C402 981 402 981 401 979 C399.86 978.35 399.86 978.35 398.69 977.69 C394.77 975.23 392.45 972.69 391.25 968.19 C391.17 967.47 391.08 966.74 391 966 C390.01 966 389.02 966 388 966 C384 961.77 384 961.77 384 958 C383.01 958 382.02 958 381 958 C379.61 956.57 379.61 956.57 378.31 954.69 C377.88 954.07 377.44 953.46 376.99 952.82 C376 951 376 951 376 948 C375.4 947.77 374.8 947.55 374.19 947.31 C371.39 945.63 370.42 943.91 369 941 C369 940.01 369 939.02 369 938 C368.36 937.71 367.72 937.42 367.06 937.12 C365 936 365 936 364 934 C363.01 933.67 362.02 933.34 361 933 C359.61 931.48 359.61 931.48 358.31 929.62 C357.88 929.02 357.44 928.41 356.99 927.79 C356 926 356 926 356 923 C355.4 922.77 354.8 922.55 354.19 922.31 C351.34 920.61 350.39 918.99 349 916 C348.81 913.19 348.81 913.19 349 911 C348.01 910.67 347.02 910.34 346 910 C346 909.34 346 908.68 346 908 C345.4 907.77 344.8 907.55 344.19 907.31 C341.39 905.63 340.42 903.91 339 901 C339 900.01 339 899.02 339 898 C338.34 898 337.68 898 337 898 C336.67 896.35 336.34 894.7 336 893 C335.01 892.67 334.02 892.34 333 892 C332.27 889.93 332.27 889.93 331.81 887.44 C331.57 886.2 331.57 886.2 331.33 884.93 C331.22 884.3 331.11 883.66 331 883 C330.34 883 329.68 883 329 883 C329 881.35 329 879.7 329 878 C328.01 877.67 327.02 877.34 326 877 C326 875.68 326 874.36 326 873 C325.4 872.79 324.8 872.59 324.19 872.38 C321.06 870.41 320.29 868.43 319 865 C318.81 861.12 318.81 861.12 319 858 C318.01 857.67 317.02 857.34 316 857 C316 856.34 316 855.68 316 855 C315.01 854.67 314.02 854.34 313 854 C310.18 849 308.39 843.78 309 838 C308.01 837.67 307.02 837.34 306 837 C306 835.68 306 834.36 306 833 C305.34 833 304.68 833 304 833 C304 829.7 304 826.4 304 823 C302.68 822.34 301.36 821.68 300 821 C295.17 814.28 293.66 806.09 294 798 C293.36 797.73 292.72 797.46 292.06 797.19 C290 796 290 796 289 793 C288.93 791.27 288.92 789.54 288.94 787.81 C288.95 786.91 288.96 786.01 288.96 785.08 C288.98 784.05 288.98 784.05 289 783 C288.01 782.67 287.02 782.34 286 782 C281.07 773.3 280.34 764.8 281 755 C280.34 755 279.68 755 279 755 C279 752.69 279 750.38 279 748 C278.01 747.67 277.02 747.34 276 747 C276 744.69 276 742.38 276 740 C275.34 740 274.68 740 274 740 C273.67 735.05 273.34 730.1 273 725 C272.34 725 271.68 725 271 725 C269.49 719.19 268.78 714 269 708 C268.34 708 267.68 708 267 708 C265.41 704.81 265.9 701.37 265.94 697.88 C265.94 696.74 265.94 696.74 265.95 695.59 C265.96 693.73 265.98 691.86 266 690 C265.34 690 264.68 690 264 690 C264 686.04 264 682.08 264 678 C263.01 677.67 262.02 677.34 261 677 C258.5 670.98 258.77 665 258.88 658.56 C258.88 657.54 258.89 656.53 258.9 655.48 C258.93 652.99 258.96 650.49 259 648 C258.01 647.67 257.02 647.34 256 647 C256 642.38 256 637.76 256 633 C255.34 633 254.68 633 254 633 C251.88 623.35 250.37 613.85 249.49 604.01 C249.31 601.97 249.12 599.94 248.92 597.9 C248.36 591.91 247.93 586.03 248 580 C247.34 580 246.68 580 246 580 C243.38 566.8 242.74 553.43 243 540 C242.34 540 241.68 540 241 540 C237.54 520.86 235.13 502.53 236 483 C235.34 483 234.68 483 234 483 C234 479.7 234 476.4 234 473 C233.01 472.67 232.02 472.34 231 472 C229.26 460.6 228.76 449.53 229 438 C228.01 437.67 227.02 437.34 226 437 C225.84 435.99 225.84 435.99 225.68 434.96 C225.19 431.81 224.69 428.65 224.19 425.5 C224.01 424.36 223.83 423.22 223.64 422.05 C222.43 414.46 221.08 406.92 219.52 399.4 C218.93 395.52 218.91 391.92 219 388 C218.01 387.67 217.02 387.34 216 387 C215.49 383.63 215 380.25 214.5 376.88 C214.36 375.92 214.21 374.97 214.07 373.99 C213.38 369.29 212.81 364.77 213 360 C212.34 360 211.68 360 211 360 C211 357.69 211 355.38 211 353 C210.34 353 209.68 353 209 353 C208.88 352.29 208.76 351.57 208.63 350.84 C206.94 341.14 204.09 332.04 200.88 322.75 C199.07 317.06 198.88 311.93 199 306 C198.01 305.67 197.02 305.34 196 305 C196 303.35 196 301.7 196 300 C195.34 300 194.68 300 194 300 C193.87 299.22 193.73 298.44 193.6 297.63 C193.33 296.11 193.33 296.11 193.06 294.56 C192.89 293.55 192.71 292.54 192.54 291.5 C192.25 289.07 192.25 289.07 191 288 C190.96 286.33 190.96 284.67 191 283 C190.34 283 189.68 283 189 283 C189 281.35 189 279.7 189 278 C188.01 277.67 187.02 277.34 186 277 C186 274.03 186 271.06 186 268 C185.34 268 184.68 268 184 268 C184 266.35 184 264.7 184 263 C183.37 262.76 182.74 262.51 182.09 262.26 C179.48 260.69 179.27 259.77 178.5 256.88 C177.4 253.18 176.02 249.92 174.23 246.5 C172.19 242.36 170.41 238.11 168.58 233.87 C167.03 230.29 165.43 226.77 163.62 223.31 C162.21 220.43 161.39 218.16 161 215 C160.01 214.67 159.02 214.34 158 214 C156.68 211.38 156.68 211.38 155.44 208.12 C154.14 204.77 153 202 151 199 C151 197.68 151 196.36 151 195 C150.01 194.67 149.02 194.34 148 194 C145.88 190.4 144.61 187.13 144 183 C143.34 183 142.68 183 142 183 C141.67 181.35 141.34 179.7 141 178 C140.01 177.67 139.02 177.34 138 177 C136.43 174.75 136.43 174.75 134.88 172 C133.19 168.81 133.19 168.81 131 166 C130.96 164.33 130.96 162.67 131 161 C130.34 161 129.68 161 129 161 C129 160.01 129 159.02 129 158 C128.11 157.92 128.11 157.92 127.2 157.84 C123.97 156.61 123.35 154.64 121.75 151.62 C118.77 146.21 115.43 141.41 111.6 136.57 C109.79 133.67 109.34 131.37 109 128 C108.42 127.96 107.84 127.92 107.25 127.88 C103.76 126.52 102.73 124.22 101 121 C100.75 118.12 100.75 118.12 101 116 C100.34 116 99.68 116 99 116 C99 115.01 99 114.02 99 113 C98.42 112.77 97.84 112.55 97.25 112.31 C94.38 110.64 92.86 108.73 91 106 C91 105.01 91 104.02 91 103 C90.4 102.77 89.8 102.55 89.19 102.31 C86.39 100.63 85.42 98.91 84 96 C84 95.01 84 94.02 84 93 C82.52 92.5 82.52 92.5 81 92 C81 91.34 81 90.68 81 90 C80.34 90 79.68 90 79 90 C79 88.68 79 87.36 79 86 C77.52 85.5 77.52 85.5 76 85 C76 84.34 76 83.68 76 83 C75.01 83 74.02 83 73 83 C71 80 71 80 71 76 C70.4 75.92 69.8 75.83 69.19 75.75 C66.3 74.76 65.47 73.65 64 71 C63.81 68.25 63.81 68.25 64 66 C63.01 65.67 62.02 65.34 61 65 C61 64.34 61 63.68 61 63 C60.36 62.77 59.72 62.55 59.06 62.31 C58.38 61.88 57.7 61.45 57 61 C56.67 59.33 56.33 57.67 56 56 C54.13 54.82 54.13 54.82 52 54 C50.25 52.56 50.25 52.56 49 51 C49 50.01 49 49.02 49 48 C48.4 47.75 47.81 47.5 47.19 47.25 C44.68 45.82 43.58 44.42 41.94 42.06 C39.9 39.16 39.9 39.16 37.5 36.56 C36 35 36 35 34.75 32.77 C32.32 28.93 29.27 25.93 26.06 22.75 C25.4 22.09 24.73 21.43 24.05 20.75 C16.78 13.64 9.24 7.39 0 3 C0 2.01 0 1.02 0 0 Z " fill="#000100" transform="translate(0,0)"/>
<path d="M0 0 C3.41 3.24 6.31 6.79 9.19 10.5 C9.91 11.43 9.91 11.43 10.65 12.38 C17.46 21.13 24.06 30.02 30.47 39.06 C32.66 42.15 34.88 45.19 37.19 48.19 C39.32 51 41.23 53.9 43.11 56.89 C47.32 63.54 51.68 70.08 56.06 76.62 C56.85 77.8 57.63 78.97 58.42 80.15 C58.8 80.72 59.18 81.3 59.58 81.89 C60.34 83.02 61.1 84.16 61.85 85.3 C63.46 87.7 65.07 90.1 66.69 92.5 C70.23 97.76 73.56 103.12 76.81 108.56 C77.52 109.73 77.52 109.73 78.24 110.92 C86.23 124.26 93.6 137.86 100.52 151.78 C101.76 154.26 103 156.74 104.25 159.22 C108.09 166.9 111.82 174.54 114.94 182.55 C116.08 185.19 117.49 187.55 119 190 C119.7 191.59 120.37 193.19 121 194.81 C121.34 195.69 121.68 196.56 122.03 197.46 C122.35 198.3 122.67 199.14 123 200 C123.26 200.67 123.52 201.35 123.78 202.04 C124.87 204.92 125.93 207.8 126.97 210.7 C128.4 214.67 129.81 218.59 131.56 222.44 C133.23 226.57 134.22 230.7 135.25 235.03 C135.89 237.56 136.63 239.98 137.5 242.44 C139.14 247.13 140.15 251.92 141.16 256.79 C141.91 260.04 141.91 260.04 143.4 263.07 C145.83 268.5 146.81 274.4 148.06 280.19 C148.57 282.52 149.08 284.84 149.6 287.17 C149.93 288.7 149.93 288.7 150.27 290.27 C150.89 292.95 150.89 292.95 152.04 295.08 C153.14 297.27 153.43 299.06 153.71 301.49 C153.87 302.79 153.87 302.79 154.04 304.11 C154.15 305.02 154.26 305.93 154.38 306.88 C155.37 314.48 156.83 321.46 159.1 328.79 C160.3 333.07 160.81 337.33 161.37 341.73 C162.17 347.59 163.4 353.39 164.56 359.19 C164.9 360.86 164.9 360.86 165.24 362.56 C166.38 368.34 166.38 368.34 168 374 C168.16 376.39 168.28 378.79 168.38 381.19 C168.93 391.79 170.93 401.92 173.62 412.19 C175.25 418.91 175.47 425.6 175.62 432.49 C175.77 437.99 176.56 442.7 178 448 C178.2 449.68 178.35 451.37 178.44 453.06 C179.05 461.06 180.46 469.38 183 477 C183.11 478.61 183.18 480.22 183.21 481.83 C183.25 483.27 183.25 483.27 183.29 484.73 C183.32 485.75 183.35 486.77 183.38 487.81 C183.72 497.94 184.78 507.33 188 517 C188.3 519.8 188.51 522.6 188.72 525.41 C188.92 528.11 188.92 528.11 190 531 C190.09 532.88 190.18 534.76 190.24 536.65 C190.57 546.98 192.34 556.7 194.53 566.77 C195.37 570.75 195.99 574.77 196.61 578.79 C196.97 581.16 196.97 581.16 198 584 C198.1 585.35 198.15 586.71 198.18 588.06 C198.4 596.43 198.69 603.67 202.02 611.47 C204.13 616.89 204.82 622.83 205.15 628.61 C205.63 636.28 207.2 643.11 209.44 650.44 C211.66 658 213.54 665.21 214.47 673.03 C215.24 677.37 216.77 681.42 218.25 685.55 C219.87 690.21 220.44 694.41 220.7 699.3 C221.4 705.56 223.78 711.61 226.62 717.19 C228.16 720.33 228.78 723.23 229.38 726.66 C229.95 729.14 229.95 729.14 231.4 731.75 C233.29 735.6 234.42 739.44 235.56 743.56 C236.85 748.14 238.12 752.62 240 757 C235.78 755.25 234.73 753.24 232.88 749.21 C230.58 743.43 229.74 738.21 230 732 C229.36 731.73 228.72 731.46 228.06 731.19 C226 730 226 730 225 727 C224.93 725.27 224.92 723.54 224.94 721.81 C224.95 720.91 224.96 720.01 224.96 719.08 C224.98 718.05 224.98 718.05 225 717 C224.01 716.67 223.02 716.34 222 716 C217.07 707.3 216.34 698.8 217 689 C216.34 689 215.68 689 215 689 C215 686.69 215 684.38 215 682 C214.01 681.67 213.02 681.34 212 681 C212 678.69 212 676.38 212 674 C211.34 674 210.68 674 210 674 C209.67 669.05 209.34 664.1 209 659 C208.34 659 207.68 659 207 659 C205.49 653.19 204.78 648 205 642 C204.34 642 203.68 642 203 642 C201.41 638.81 201.9 635.37 201.94 631.88 C201.94 630.74 201.94 630.74 201.95 629.59 C201.96 627.73 201.98 625.86 202 624 C201.34 624 200.68 624 200 624 C200 620.04 200 616.08 200 612 C199.01 611.67 198.02 611.34 197 611 C194.5 604.98 194.77 599 194.88 592.56 C194.88 591.54 194.89 590.53 194.9 589.48 C194.93 586.99 194.96 584.49 195 582 C194.01 581.67 193.02 581.34 192 581 C192 576.38 192 571.76 192 567 C191.34 567 190.68 567 190 567 C187.88 557.35 186.37 547.85 185.49 538.01 C185.31 535.97 185.12 533.94 184.92 531.9 C184.36 525.91 183.93 520.03 184 514 C183.34 514 182.68 514 182 514 C179.38 500.8 178.74 487.43 179 474 C178.34 474 177.68 474 177 474 C173.54 454.86 171.13 436.53 172 417 C171.34 417 170.68 417 170 417 C170 413.7 170 410.4 170 407 C169.01 406.67 168.02 406.34 167 406 C165.26 394.6 164.76 383.53 165 372 C164.01 371.67 163.02 371.34 162 371 C161.84 369.99 161.84 369.99 161.68 368.96 C161.19 365.81 160.69 362.65 160.19 359.5 C160.01 358.36 159.83 357.22 159.64 356.05 C158.43 348.46 157.08 340.92 155.52 333.4 C154.93 329.52 154.91 325.92 155 322 C154.01 321.67 153.02 321.34 152 321 C151.49 317.63 151 314.25 150.5 310.88 C150.36 309.92 150.21 308.97 150.07 307.99 C149.38 303.29 148.81 298.77 149 294 C148.34 294 147.68 294 147 294 C147 291.69 147 289.38 147 287 C146.34 287 145.68 287 145 287 C144.88 286.29 144.76 285.57 144.63 284.84 C142.94 275.14 140.09 266.04 136.88 256.75 C135.07 251.06 134.88 245.93 135 240 C134.01 239.67 133.02 239.34 132 239 C132 237.35 132 235.7 132 234 C131.34 234 130.68 234 130 234 C129.87 233.22 129.73 232.44 129.6 231.63 C129.42 230.62 129.24 229.61 129.06 228.56 C128.89 227.55 128.71 226.54 128.54 225.5 C128.25 223.07 128.25 223.07 127 222 C126.96 220.33 126.96 218.67 127 217 C126.34 217 125.68 217 125 217 C125 215.35 125 213.7 125 212 C124.01 211.67 123.02 211.34 122 211 C122 208.03 122 205.06 122 202 C121.34 202 120.68 202 120 202 C120 200.35 120 198.7 120 197 C119.37 196.76 118.74 196.51 118.09 196.26 C115.48 194.69 115.27 193.77 114.5 190.88 C113.4 187.18 112.02 183.92 110.23 180.5 C108.19 176.36 106.41 172.11 104.58 167.87 C103.03 164.29 101.43 160.77 99.62 157.31 C98.21 154.43 97.39 152.16 97 149 C96.01 148.67 95.02 148.34 94 148 C92.68 145.38 92.68 145.38 91.44 142.12 C90.14 138.77 89 136 87 133 C87 131.68 87 130.36 87 129 C86.01 128.67 85.02 128.34 84 128 C81.88 124.4 80.61 121.13 80 117 C79.34 117 78.68 117 78 117 C77.67 115.35 77.34 113.7 77 112 C75.51 111.5 75.51 111.5 74 111 C72.43 108.75 72.43 108.75 70.88 106 C69.19 102.81 69.19 102.81 67 100 C66.96 98.33 66.96 96.67 67 95 C66.34 95 65.68 95 65 95 C65 94.01 65 93.02 65 92 C64.41 91.95 63.81 91.89 63.2 91.84 C59.97 90.61 59.35 88.64 57.75 85.62 C54.77 80.21 51.43 75.41 47.6 70.57 C45.79 67.67 45.34 65.37 45 62 C44.42 61.96 43.84 61.92 43.25 61.88 C39.76 60.52 38.73 58.22 37 55 C36.75 52.12 36.75 52.12 37 50 C36.34 50 35.68 50 35 50 C35 49.01 35 48.02 35 47 C34.42 46.77 33.84 46.55 33.25 46.31 C30.38 44.64 28.86 42.73 27 40 C27 39.01 27 38.02 27 37 C26.4 36.77 25.8 36.55 25.19 36.31 C22.39 34.63 21.42 32.91 20 30 C20 29.01 20 28.02 20 27 C19.01 26.67 18.02 26.34 17 26 C17 25.34 17 24.68 17 24 C16.34 24 15.68 24 15 24 C15 22.68 15 21.36 15 20 C14.01 19.67 13.02 19.34 12 19 C12 18.34 12 17.68 12 17 C11.01 17 10.02 17 9 17 C7 14 7 14 7 10 C6.4 9.92 5.8 9.84 5.19 9.75 C2.3 8.76 1.47 7.65 0 5 C-0.19 2.25 -0.19 2.25 0 0 Z " fill="#000002" transform="translate(64,66)"/>
<path d="M0 0 C2.32 2.16 3.95 4.37 5.62 7.06 C7.9 10.55 10.35 13.58 13.19 16.62 C18.59 22.47 23.13 28.86 27.77 35.31 C32.47 41.78 37.54 47.75 42.94 53.65 C44.67 55.62 46.17 57.57 47.62 59.75 C49.28 62.18 50.94 63.87 53.25 65.69 C56.41 68.26 58.58 71.05 60.94 74.38 C65.46 80.62 70.68 85.89 76.24 91.22 C79.35 94.23 82.21 97.15 84.7 100.7 C89.24 106.98 95.05 112.22 100.56 117.62 C102.26 119.29 103.95 120.96 105.64 122.63 C106.68 123.66 107.73 124.69 108.78 125.71 C111.21 128.12 113.51 130.56 115.68 133.21 C118.2 136.24 120.81 138.32 124 140.62 C134.41 148.2 134.41 148.2 136.69 151.31 C138.85 153.82 140.45 155 143.19 156.75 C148.61 160.38 152.96 164.83 157.5 169.5 C162.66 174.8 167.61 179.55 173.88 183.54 C176.2 185.14 178 186.9 179.94 188.94 C183.65 192.81 187.71 195.79 192.09 198.87 C195.14 201.1 198 203.48 200.88 205.94 C205.51 209.86 210.28 213.37 215.3 216.76 C218.51 218.93 221.53 221.2 224.5 223.69 C231.99 229.8 240.23 234.91 248.3 240.22 C250.86 241.91 253.4 243.61 255.94 245.32 C263.21 250.22 270.47 254.98 278.1 259.3 C281.35 261.2 284.48 263.25 287.62 265.31 C295.17 270.25 303.05 274.56 310.96 278.88 C314 280.55 317 282.27 320 284 C320 284.33 320 284.66 320 285 C313.82 284.78 310.52 283.33 305.55 279.74 C302.66 277.76 299.67 276.18 296.56 274.56 C290.77 271.5 285 268.28 280 264 C280 263.34 280 262.68 280 262 C279.17 261.94 278.35 261.88 277.5 261.81 C272.96 260.76 269.82 258.59 266 256 C265.09 255.43 265.09 255.43 264.16 254.85 C262.73 253.96 261.36 252.99 260 252 C260 251.34 260 250.68 260 250 C259.22 249.81 258.43 249.63 257.62 249.44 C253.35 247.74 250.06 245.37 246.37 242.66 C244.29 241.2 242.27 240.11 240 239 C239.55 238.53 239.09 238.05 238.62 237.56 C236.97 235.81 236.97 235.81 234.27 234.69 C230.84 232.92 228.1 230.89 225.12 228.44 C223.67 227.26 223.67 227.26 222.2 226.06 C221.47 225.38 220.75 224.7 220 224 C220 223.34 220 222.68 220 222 C219.01 222 218.02 222 217 222 C217 221.34 217 220.68 217 220 C216.46 219.94 215.93 219.88 215.38 219.81 C211.95 218.64 209.73 216.33 207 214 C204.78 212.72 204.78 212.72 203 212 C203 211.34 203 210.68 203 210 C202.3 209.77 201.59 209.54 200.87 209.3 C197.45 207.75 194.86 205.58 192.06 203.12 C189.03 200.49 186.02 197.96 182.62 195.8 C181.76 195.21 180.89 194.61 180 194 C180 193.34 180 192.68 180 192 C179.1 191.61 179.1 191.61 178.17 191.21 C175.82 189.9 174.83 188.72 173.25 186.56 C169.99 182.55 166.91 181.44 162 180 C162 179.01 162 178.02 162 177 C161.34 177 160.68 177 160 177 C160 176.34 160 175.68 160 175 C159.01 174.67 158.02 174.34 157 174 C157 173.34 157 172.68 157 172 C156.34 172 155.68 172 155 172 C155 171.34 155 170.68 155 170 C154.01 169.67 153.02 169.34 152 169 C152 168.34 152 167.68 152 167 C151.4 166.73 150.8 166.46 150.19 166.19 C148 165 146.59 163.9 145 162 C145 161.34 145 160.68 145 160 C144.09 159.73 143.19 159.46 142.25 159.19 C139.26 158.09 137.28 157.2 135 155 C135 154.01 135 153.02 135 152 C134.36 151.71 133.72 151.42 133.06 151.12 C131 150 131 150 130 148 C128.62 147.31 128.62 147.31 127.21 146.61 C116.84 141.42 108.29 130.44 100.17 122.3 C98.05 120.17 95.92 118.05 93.79 115.93 C92.44 114.57 91.08 113.21 89.72 111.86 C89.09 111.23 88.46 110.6 87.81 109.95 C80 102.1 80 102.1 80 97 C79.28 96.77 78.56 96.55 77.81 96.31 C74.42 94.73 72.43 92.84 70 90 C70 89.01 70 88.02 70 87 C69.28 86.79 68.56 86.59 67.81 86.38 C63.97 84.5 62.45 82.51 60 79 C60 77.68 60 76.36 60 75 C59.01 74.67 58.02 74.34 57 74 C57 73.34 57 72.68 57 72 C56.36 71.71 55.72 71.42 55.06 71.12 C53 70 53 70 52 68 C51.24 67.57 50.47 67.13 49.69 66.69 C45.77 64.23 43.45 61.69 42.25 57.19 C42.17 56.47 42.08 55.74 42 55 C41.01 55 40.02 55 39 55 C35 50.77 35 50.77 35 47 C34.01 47 33.02 47 32 47 C30.61 45.57 30.61 45.57 29.31 43.69 C28.88 43.07 28.44 42.46 27.99 41.82 C27 40 27 40 27 37 C26.4 36.77 25.8 36.55 25.19 36.31 C22.39 34.63 21.42 32.91 20 30 C20 29.01 20 28.02 20 27 C19.36 26.71 18.72 26.42 18.06 26.12 C16 25 16 25 15 23 C14.01 22.67 13.02 22.34 12 22 C10.61 20.48 10.61 20.48 9.31 18.62 C8.88 18.02 8.44 17.41 7.99 16.79 C7 15 7 15 7 12 C6.4 11.77 5.8 11.55 5.19 11.31 C2.34 9.61 1.39 7.99 0 5 C-0.19 2.19 -0.19 2.19 0 0 Z " fill="#000002" transform="translate(349,911)"/>
<path d="M0 0 C3.6 1.37 6.94 2.96 10.31 4.81 C11.28 5.34 12.24 5.87 13.24 6.41 C15.57 7.75 17.78 9.17 20 10.69 C23.8 13.13 27.61 14.16 32 15.13 C38.97 17.15 45.27 20.63 51.6 24.11 C59.5 28.44 66.5 31.92 75.41 33.46 C79.19 34.25 81.74 35.95 85 38 C86.94 38.78 88.9 39.47 90.87 40.16 C93.17 41.07 95.22 42.22 97.38 43.44 C102.89 46.3 108.61 47.43 114.67 48.57 C119.11 49.43 122.11 50.63 126 53 C128.72 53.73 131.38 54.37 134.12 54.94 C139.11 56.03 143.87 57.19 148.62 59.06 C154.09 61.2 159.63 62.16 165.39 63.21 C168.6 63.91 171.3 64.84 174.31 66.12 C179.16 68.04 183.48 68.3 188.62 68.44 C194.95 68.61 200.47 69.43 206.5 71.38 C219.39 75.52 232.27 77.4 245.81 77.45 C251.53 77.57 251.53 77.57 254.24 80.03 C254.82 80.68 255.4 81.33 256 82 C251.96 81.91 247.92 81.8 243.88 81.68 C242.51 81.64 241.14 81.61 239.77 81.58 C237.79 81.53 235.81 81.47 233.83 81.41 C232.64 81.38 231.45 81.35 230.23 81.32 C227.08 81.01 224.87 80.28 222 79 C219.91 78.57 217.8 78.2 215.69 77.88 C214.62 77.71 213.55 77.54 212.45 77.37 C211.64 77.25 210.83 77.12 210 77 C210 76.34 210 75.68 210 75 C207.03 75 204.06 75 201 75 C200.67 74.01 200.34 73.02 200 72 C199.38 72.16 198.76 72.33 198.12 72.5 C188.17 74.09 179.57 72.27 170.19 69 C165.05 67.23 160.08 66.29 154.71 65.5 C151.13 64.84 148.25 63.62 145 62 C145 61.34 145 60.68 145 60 C143.39 60.09 143.39 60.09 141.75 60.19 C135.96 60.22 130.54 58.55 125 57 C125 56.34 125 55.68 125 55 C123.35 54.67 121.7 54.34 120 54 C120 53.34 120 52.68 120 52 C119 51.96 118 51.93 116.96 51.89 C103.85 51.28 103.85 51.28 98 48 C98 47.01 98 46.02 98 45 C97.2 44.88 96.39 44.75 95.56 44.62 C91.34 43.88 87.18 42.96 83 42 C83 41.34 83 40.68 83 40 C81.51 39.51 81.51 39.51 80 39 C80 38.34 80 37.68 80 37 C79.05 37.06 78.1 37.12 77.12 37.19 C69.52 37.16 62.98 34.33 56.76 30.14 C54.62 28.75 52.41 27.83 50 27 C50 26.34 50 25.68 50 25 C48.35 24.67 46.7 24.34 45 24 C45 23.34 45 22.68 45 22 C42.69 22 40.38 22 38 22 C38 21.34 38 20.68 38 20 C36.33 19.88 36.33 19.88 34.62 19.75 C26.03 18.63 19.42 14.82 12.54 9.75 C8.59 7.03 4.34 5.01 0 3 C0 2.01 0 1.02 0 0 Z " fill="#000002" transform="translate(669,1196)"/>
<path d="M0 0 C0.99 0.49 0.99 0.49 2 1 C-1.38 4.88 -1.38 4.88 -4.62 5.5 C-5.41 5.66 -6.19 5.83 -7 6 C-7.31 6.66 -7.62 7.32 -7.94 8 C-8.29 8.66 -8.64 9.32 -9 10 C-11 10.33 -13 10.67 -15 11 C-16.18 12.87 -16.18 12.87 -17 15 C-20.28 18.28 -23.49 18.57 -28 19 C-28 19.66 -28 20.32 -28 21 C-28.66 21 -29.32 21 -30 21 C-30.33 21.99 -30.66 22.98 -31 24 C-36.87 27.77 -36.87 27.77 -40.12 28.44 C-42.26 28.92 -42.26 28.92 -44.19 31.19 C-50.13 37.13 -56.51 40.52 -64.52 42.95 C-67.38 44.16 -68.84 45.82 -71 48 C-74.25 48.25 -74.25 48.25 -77 48 C-77.19 48.58 -77.37 49.15 -77.56 49.75 C-79.62 52.97 -82.47 54.6 -86 56 C-87.32 56 -88.64 56 -90 56 C-90.29 56.64 -90.58 57.28 -90.88 57.94 C-92 60 -92 60 -94 61 C-96 61.04 -98 61.04 -100 61 C-100.33 61.99 -100.66 62.98 -101 64 C-103.75 65.56 -103.75 65.56 -107 67 C-107.85 67.41 -108.69 67.83 -109.56 68.25 C-112.43 69.13 -114.15 68.82 -117 68 C-117.33 68.99 -117.66 69.98 -118 71 C-125.39 76.29 -135.81 81 -145 81 C-145 81.66 -145 82.32 -145 83 C-147.31 83 -149.62 83 -152 83 C-152.49 84.48 -152.49 84.48 -153 86 C-155.31 86 -157.62 86 -160 86 C-160.49 87.48 -160.49 87.48 -161 89 C-165.41 91.62 -170.05 91.19 -175 91 C-175 91.66 -175 92.32 -175 93 C-177.31 93 -179.62 93 -182 93 C-182.49 94.48 -182.49 94.48 -183 96 C-185.31 96 -187.62 96 -190 96 C-190 96.66 -190 97.32 -190 98 C-193.08 99.03 -195.64 99.27 -198.88 99.5 C-202.67 99.77 -206.29 100.18 -210 101 C-210 101.66 -210 102.32 -210 103 C-213.96 103 -217.92 103 -222 103 C-222.33 103.99 -222.66 104.98 -223 106 C-230.92 106 -238.84 106 -247 106 C-247 106.66 -247 107.32 -247 108 C-248.32 108 -249.64 108 -251 108 C-251 107.34 -251 106.68 -251 106 C-246.5 102.19 -241.66 102.52 -236.06 102.44 C-230.29 102.32 -225.45 102.1 -220 100 C-218.4 99.66 -216.8 99.34 -215.19 99.06 C-211.89 98.44 -208.84 97.65 -205.69 96.5 C-202.07 95.22 -198.62 94.61 -194.81 94.12 C-188.62 93.27 -183.2 91.39 -177.37 89.16 C-173.41 87.8 -169.55 87.08 -165.4 86.55 C-162.49 85.88 -160.55 84.56 -158 83 C-155.44 81.95 -152.91 80.95 -150.31 80 C-149.6 79.73 -148.89 79.47 -148.15 79.2 C-144.42 77.82 -140.71 76.59 -136.88 75.56 C-131.37 74.01 -126.44 71.35 -121.39 68.72 C-116.59 66.28 -111.68 64.23 -106.62 62.38 C-94.28 57.47 -82.36 50.53 -71.3 43.22 C-67 40.39 -62.99 37.86 -58.12 36.12 C-51.36 33.63 -45.8 29.19 -40 25 C-34.17 20.94 -28.14 17.24 -22.03 13.62 C-18.5 11.52 -15 9.38 -11.55 7.16 C-10.45 6.47 -10.45 6.47 -9.34 5.75 C-7.92 4.85 -6.51 3.93 -5.1 3.01 C-3.44 1.95 -1.72 0.96 0 0 Z " fill="#000002" transform="translate(1278,1170)"/>
<path d="M0 0 C3.13 3.13 3.5 4.08 4.44 8.19 C5.53 12.52 6.92 16.18 9.04 20.11 C10.02 22.04 10.73 23.95 11.44 26 C12.76 29.71 14.67 32.74 16.82 36.02 C18.28 38.47 19.08 41.06 19.99 43.74 C21.32 46.71 23.09 49.21 24.94 51.88 C27.42 55.48 29.47 58.75 30.94 62.88 C33.73 70.62 38.75 77.81 43.78 84.29 C45 86 45 86 45 88 C44.01 87.67 43.02 87.34 42 87 C42 86.34 42 85.68 42 85 C41.4 84.77 40.8 84.55 40.19 84.31 C37.39 82.63 36.42 80.91 35 78 C35 77.01 35 76.02 35 75 C34.34 75 33.68 75 33 75 C32.67 73.35 32.34 71.7 32 70 C30.51 69.5 30.51 69.5 29 69 C28.27 66.93 28.27 66.93 27.81 64.44 C27.57 63.2 27.57 63.2 27.33 61.93 C27.22 61.3 27.11 60.66 27 60 C26.34 60 25.68 60 25 60 C25 58.35 25 56.7 25 55 C23.51 54.5 23.51 54.5 22 54 C22 52.68 22 51.36 22 50 C21.4 49.79 20.8 49.59 20.19 49.38 C17.06 47.41 16.29 45.43 15 42 C14.81 38.12 14.81 38.12 15 35 C14.01 34.67 13.02 34.34 12 34 C12 33.34 12 32.68 12 32 C11.01 31.67 10.02 31.34 9 31 C6.18 26 4.39 20.78 5 15 C4.01 14.67 3.02 14.34 2 14 C2 12.68 2 11.36 2 10 C1.34 10 0.68 10 0 10 C0 6.7 0 3.4 0 0 Z " fill="#000002" transform="translate(304,823)"/>
</svg>
